<svg width="219.471558" height="22.426758" viewBox="0 0 219.472 22.4268" fill="none" xmlns="http://www.w3.org/2000/svg" xmlns:xlink="http://www.w3.org/1999/xlink">
	<desc>
			Created with Pixso.
	</desc>
	<defs/>
	<path d="M29.51 0C35.3 0 39.73 4.07 39.73 11.21C39.73 18.34 35.3 22.41 29.51 22.41C23.7 22.41 19.3 18.31 19.3 11.21C19.3 4.07 23.7 0 29.51 0ZM72.8 0C78.58 0 83.01 4.07 83.01 11.21C83.01 18.34 78.58 22.41 72.8 22.41C66.98 22.41 62.59 18.31 62.59 11.21C62.59 4.07 66.98 0 72.8 0ZM110.25 6.57L105.83 6.57C105.66 4.86 104.3 3.85 102.1 3.85C99.83 3.85 98.59 4.89 98.59 6.29C98.56 7.86 100.15 8.56 102.05 9L104 9.47C107.8 10.32 110.54 12.25 110.54 15.88C110.54 19.88 107.4 22.42 102.08 22.42C96.78 22.42 93.4 19.98 93.29 15.27L97.75 15.27C97.9 17.45 99.62 18.55 102.03 18.55C104.37 18.55 105.88 17.47 105.89 15.87C105.88 14.4 104.56 13.72 102.18 13.14L99.81 12.55C96.12 11.66 93.85 9.82 93.86 6.6C93.84 2.64 97.34 0 102.13 0C106.98 0 110.18 2.68 110.25 6.57ZM123.41 0C128.47 0 132.28 2.9 132.88 7.93L128.22 7.93C127.87 5.54 126.04 4.07 123.52 4.07C120.15 4.07 117.93 6.67 117.93 11.21C117.93 15.87 120.18 18.33 123.49 18.33C125.95 18.33 127.79 16.99 128.22 14.66L132.88 14.68C132.39 18.69 129.01 22.41 123.41 22.41C117.58 22.41 113.25 18.32 113.25 11.21C113.25 4.07 117.65 0 123.41 0ZM168.41 0C174.2 0 178.63 4.07 178.63 11.21C178.63 18.34 174.2 22.41 168.41 22.41C162.6 22.41 158.2 18.31 158.2 11.21C158.2 4.07 162.6 0 168.41 0ZM191.87 0C197.66 0 202.09 4.07 202.09 11.21C202.09 18.34 197.66 22.41 191.87 22.41C186.05 22.41 181.66 18.31 181.66 11.21C181.66 4.07 186.05 0 191.87 0ZM4.61 22.11L0 22.11L0 0.3L8.6 0.3C13.56 0.3 16.42 3.09 16.42 7.42C16.42 10.4 15.05 12.57 12.56 13.63L17.2 22.11L12.11 22.11L7.97 14.38L4.61 14.38L4.61 22.11ZM52.47 22.11L43.14 22.11L43.14 0.3L51.88 0.3C56.69 0.3 59.12 2.62 59.12 5.89C59.12 8.45 57.45 10.07 55.18 10.58L55.18 10.79C57.66 10.91 59.97 12.86 59.97 16.09C59.97 19.56 57.36 22.11 52.47 22.11ZM140.81 22.11L136.2 22.11L136.2 0.3L140.81 0.3L140.81 9.3L150.17 9.3L150.17 0.3L154.78 0.3L154.78 22.11L150.17 22.11L150.17 13.1L140.81 13.1L140.81 22.11ZM219.47 22.11L205.5 22.11L205.5 0.3L210.11 0.3L210.11 18.31L219.47 18.31L219.47 22.11ZM47.76 4.02L47.76 9.43L51.18 9.43C53.06 9.43 54.46 8.38 54.46 6.65C54.46 5.08 53.31 4.02 51.26 4.02L47.76 4.02ZM4.61 4.07L4.61 10.67L7.74 10.67C10.38 10.67 11.67 9.58 11.67 7.42C11.67 5.25 10.38 4.07 7.71 4.07L4.61 4.07ZM29.51 18.33C32.86 18.33 35.06 15.83 35.06 11.21C35.06 6.58 32.86 4.07 29.51 4.07C26.16 4.07 23.97 6.58 23.97 11.21C23.97 15.83 26.16 18.33 29.51 18.33ZM72.8 18.33C76.14 18.33 78.34 15.83 78.34 11.21C78.34 6.58 76.14 4.07 72.8 4.07C69.44 4.07 67.26 6.58 67.26 11.21C67.26 15.83 69.44 18.33 72.8 18.33ZM168.41 18.33C171.76 18.33 173.96 15.83 173.96 11.21C173.96 6.58 171.76 4.07 168.41 4.07C165.06 4.07 162.87 6.58 162.87 11.21C162.87 15.83 165.06 18.33 168.41 18.33ZM191.87 18.33C195.22 18.33 197.41 15.83 197.41 11.21C197.41 6.58 195.22 4.07 191.87 4.07C188.52 4.07 186.33 6.58 186.33 11.21C186.33 15.83 188.52 18.33 191.87 18.33ZM47.76 12.55L47.76 18.34L51.51 18.34C54.09 18.34 55.21 17.27 55.21 15.62C55.21 13.82 53.83 12.55 51.62 12.55L47.76 12.55ZM90.19 19.84C90.17 21.25 89 22.39 87.63 22.39C86.22 22.39 85.06 21.25 85.07 19.84C85.06 18.44 86.22 17.3 87.63 17.3C89 17.3 90.17 18.44 90.19 19.84Z" fill="#FFFFFF" fill-opacity="1.000000" fill-rule="evenodd"/>
</svg>
